<svg width="1512" height="982" viewBox="0 0 1512 982" fill="none" xmlns="http://www.w3.org/2000/svg">
<g clip-path="url(#clip0_69_13)">
<rect width="1512" height="982" fill="white"/>
<circle cx="1419" cy="346" r="758" fill="url(#paint0_linear_69_13)"/>
<g filter="url(#filter0_f_69_13)">
<path d="M1514 771.512H1468.5V742.363H1475.41V763.269H1487.76V744.363H1494.67V763.269H1514V771.512ZM1514 714.047V722.845L1468.5 706.826V696.65L1514 680.61V689.408L1477.83 701.56V701.916L1514 714.047ZM1496.16 713.758V689.763H1502.78V713.758H1496.16ZM1514 653.971H1468.5V645.728H1489.41V645.173L1468.5 627.421V617.357L1488.92 634.953L1514 617.201V627.11L1494.49 640.685L1500.45 645.728H1514V653.971ZM1514 590.984L1468.5 590.984V561.391H1475.41V582.742H1487.76V562.924H1494.67L1494.67 582.742H1507.09V561.213H1514V590.984ZM1514 532.336L1468.5 532.336V514.917C1468.5 511.629 1469.02 508.896 1470.05 506.719C1471.08 504.527 1472.48 502.89 1474.25 501.809C1476.03 500.713 1478.05 500.165 1480.3 500.165C1482.15 500.165 1483.73 500.521 1485.05 501.231C1486.35 501.942 1487.41 502.898 1488.23 504.098C1489.04 505.297 1489.63 506.638 1489.98 508.119H1490.43C1490.52 506.504 1491.01 504.957 1491.92 503.475C1492.8 501.979 1494.06 500.758 1495.69 499.81C1497.32 498.862 1499.29 498.388 1501.6 498.388C1503.96 498.388 1506.08 498.958 1507.96 500.098C1509.82 501.239 1511.3 502.957 1512.38 505.253C1513.46 507.549 1514 510.437 1514 513.918V532.336ZM1507.11 524.093V515.228C1507.11 512.236 1506.54 510.081 1505.4 508.763C1504.25 507.43 1502.77 506.764 1500.96 506.764C1499.61 506.764 1498.4 507.097 1497.31 507.763C1496.22 508.43 1495.36 509.378 1494.74 510.607C1494.1 511.837 1493.78 513.303 1493.78 515.006V524.093H1507.11ZM1487.85 524.093V515.939C1487.85 514.517 1487.59 513.236 1487.07 512.096C1486.54 510.955 1485.79 510.059 1484.83 509.407C1483.85 508.741 1482.7 508.408 1481.36 508.408C1479.6 508.408 1478.15 509.03 1477.01 510.274C1475.87 511.503 1475.3 513.332 1475.3 515.762V524.093H1487.85ZM1468.5 441.889V433.646H1498.23C1501.48 433.646 1504.35 434.416 1506.82 435.957C1509.3 437.482 1511.23 439.63 1512.62 442.4C1514 445.169 1514.69 448.406 1514.69 452.109C1514.69 455.826 1514 459.07 1512.62 461.84C1511.23 464.609 1509.3 466.757 1506.82 468.283C1504.35 469.808 1501.48 470.571 1498.23 470.571H1468.5V462.328H1497.54C1499.43 462.328 1501.12 461.914 1502.6 461.084C1504.08 460.24 1505.25 459.055 1506.09 457.53C1506.92 456.004 1507.33 454.197 1507.33 452.109C1507.33 450.02 1506.92 448.213 1506.09 446.688C1505.25 445.147 1504.08 443.962 1502.6 443.133C1501.12 442.303 1499.43 441.889 1497.54 441.889H1468.5ZM1481.01 379.313C1479.07 379.521 1477.56 380.394 1476.48 381.935C1475.39 383.46 1474.85 385.445 1474.85 387.889C1474.85 389.607 1475.11 391.081 1475.63 392.31C1476.15 393.54 1476.85 394.48 1477.74 395.132C1478.63 395.784 1479.64 396.117 1480.79 396.132C1481.73 396.132 1482.56 395.917 1483.25 395.487C1483.95 395.043 1484.54 394.443 1485.03 393.688C1485.5 392.932 1485.9 392.096 1486.23 391.177C1486.55 390.259 1486.83 389.333 1487.05 388.4L1488.12 384.134C1488.52 382.416 1489.06 380.765 1489.74 379.18C1490.42 377.58 1491.28 376.151 1492.32 374.892C1493.35 373.618 1494.6 372.611 1496.07 371.87C1497.54 371.13 1499.26 370.76 1501.23 370.76C1503.89 370.76 1506.24 371.441 1508.27 372.804C1510.28 374.166 1511.86 376.136 1513 378.713C1514.13 381.276 1514.69 384.379 1514.69 388.022C1514.69 391.562 1514.14 394.636 1513.04 397.243C1511.95 399.835 1510.35 401.864 1508.25 403.33C1506.14 404.782 1503.58 405.567 1500.56 405.685V397.576C1502.14 397.457 1503.46 396.969 1504.51 396.109C1505.56 395.25 1506.35 394.132 1506.87 392.755C1507.39 391.362 1507.65 389.807 1507.65 388.089C1507.65 386.297 1507.38 384.727 1506.85 383.379C1506.3 382.016 1505.54 380.95 1504.58 380.18C1503.6 379.41 1502.46 379.017 1501.16 379.002C1499.97 379.017 1499 379.365 1498.23 380.046C1497.44 380.728 1496.79 381.683 1496.27 382.912C1495.74 384.127 1495.26 385.549 1494.85 387.178L1493.52 392.355C1492.55 396.102 1491.09 399.064 1489.14 401.242C1487.17 403.404 1484.55 404.485 1481.3 404.485C1478.62 404.485 1476.27 403.76 1474.25 402.308C1472.24 400.842 1470.68 398.85 1469.57 396.332C1468.44 393.814 1467.88 390.962 1467.88 387.778C1467.88 384.549 1468.44 381.72 1469.57 379.291C1470.68 376.847 1472.22 374.929 1474.21 373.537C1476.18 372.144 1478.45 371.426 1481.01 371.382V379.313ZM1475.41 344.765H1468.5V308.462H1475.41V322.525H1514V330.701H1475.41V344.765ZM1514 280.817H1468.5V251.224H1475.41L1475.41 272.575H1487.76V252.757H1494.67V272.575H1507.09V251.046H1514V280.817ZM1514 222.169H1468.5V205.106C1468.5 201.611 1469.11 198.678 1470.32 196.308C1471.54 193.924 1473.24 192.124 1475.43 190.909C1477.61 189.68 1480.15 189.065 1483.05 189.065C1485.97 189.065 1488.5 189.687 1490.65 190.932C1492.78 192.161 1494.43 193.975 1495.6 196.375C1496.76 198.774 1497.34 201.722 1497.34 205.217V217.37H1490.49V206.328C1490.49 204.284 1490.21 202.61 1489.65 201.307C1489.07 200.004 1488.24 199.041 1487.14 198.419C1486.03 197.782 1484.67 197.463 1483.05 197.463C1481.44 197.463 1480.06 197.782 1478.92 198.419C1477.76 199.056 1476.89 200.026 1476.3 201.329C1475.69 202.633 1475.39 204.314 1475.39 206.373V213.926H1514V222.169ZM1493.38 198.663L1514 187.399V196.597L1493.38 207.661V198.663Z" fill="white"/>
<path d="M1446 771.512H1400.5V742.363H1407.41V763.27H1419.76V744.363H1426.67V763.27H1446V771.512ZM1446 714.047V722.845L1400.5 706.826V696.651L1446 680.61V689.408L1409.83 701.561V701.916L1446 714.047ZM1428.16 713.758V689.763H1434.78V713.758H1428.16ZM1446 653.971H1400.5V645.728H1421.41V645.173L1400.5 627.421V617.357L1420.92 634.953L1446 617.201V627.11L1426.49 640.685L1432.45 645.728H1446V653.971ZM1446 590.984L1400.5 590.984V561.391H1407.41V582.742H1419.76V562.924H1426.67L1426.67 582.742H1439.09V561.213H1446V590.984ZM1446 532.336L1400.5 532.336V514.917C1400.5 511.629 1401.02 508.897 1402.05 506.719C1403.08 504.527 1404.48 502.891 1406.25 501.809C1408.03 500.713 1410.05 500.165 1412.3 500.165C1414.15 500.165 1415.73 500.521 1417.05 501.232C1418.35 501.943 1419.41 502.898 1420.23 504.098C1421.04 505.297 1421.63 506.638 1421.98 508.119H1422.43C1422.52 506.505 1423.01 504.957 1423.92 503.476C1424.8 501.98 1426.06 500.758 1427.69 499.81C1429.32 498.862 1431.29 498.388 1433.6 498.388C1435.96 498.388 1438.08 498.958 1439.96 500.099C1441.82 501.239 1443.3 502.957 1444.38 505.253C1445.46 507.549 1446 510.437 1446 513.918V532.336ZM1439.11 524.093V515.228C1439.11 512.237 1438.54 510.081 1437.4 508.763C1436.25 507.43 1434.77 506.764 1432.96 506.764C1431.61 506.764 1430.4 507.097 1429.31 507.763C1428.22 508.43 1427.36 509.378 1426.74 510.607C1426.1 511.837 1425.78 513.303 1425.78 515.006V524.093H1439.11ZM1419.85 524.093V515.939C1419.85 514.518 1419.59 513.236 1419.07 512.096C1418.54 510.955 1417.79 510.059 1416.83 509.408C1415.85 508.741 1414.7 508.408 1413.36 508.408C1411.6 508.408 1410.15 509.03 1409.01 510.274C1407.87 511.503 1407.3 513.333 1407.3 515.762V524.093H1419.85ZM1400.5 441.889V433.646H1430.23C1433.48 433.646 1436.35 434.416 1438.82 435.957C1441.3 437.482 1443.23 439.63 1444.62 442.4C1446 445.17 1446.69 448.406 1446.69 452.109C1446.69 455.826 1446 459.07 1444.62 461.84C1443.23 464.61 1441.3 466.757 1438.82 468.283C1436.35 469.808 1433.48 470.571 1430.23 470.571H1400.5V462.329H1429.54C1431.43 462.329 1433.12 461.914 1434.6 461.084C1436.08 460.24 1437.25 459.055 1438.09 457.53C1438.92 456.004 1439.33 454.197 1439.33 452.109C1439.33 450.02 1438.92 448.213 1438.09 446.688C1437.25 445.147 1436.08 443.962 1434.6 443.133C1433.12 442.304 1431.43 441.889 1429.54 441.889H1400.5ZM1413.01 379.313C1411.07 379.521 1409.56 380.395 1408.48 381.935C1407.39 383.461 1406.85 385.445 1406.85 387.889C1406.85 389.607 1407.11 391.081 1407.63 392.31C1408.15 393.54 1408.85 394.48 1409.74 395.132C1410.63 395.784 1411.64 396.117 1412.79 396.132C1413.73 396.132 1414.56 395.917 1415.25 395.487C1415.95 395.043 1416.54 394.443 1417.03 393.688C1417.5 392.932 1417.9 392.096 1418.23 391.177C1418.55 390.259 1418.83 389.333 1419.05 388.4L1420.12 384.134C1420.52 382.416 1421.06 380.765 1421.74 379.18C1422.42 377.58 1423.28 376.151 1424.32 374.892C1425.35 373.618 1426.6 372.611 1428.07 371.871C1429.54 371.13 1431.26 370.76 1433.23 370.76C1435.89 370.76 1438.24 371.441 1440.27 372.804C1442.28 374.166 1443.86 376.136 1445 378.713C1446.13 381.276 1446.69 384.379 1446.69 388.022C1446.69 391.562 1446.14 394.636 1445.04 397.243C1443.95 399.835 1442.35 401.864 1440.25 403.33C1438.14 404.782 1435.58 405.567 1432.56 405.685V397.576C1434.14 397.457 1435.46 396.969 1436.51 396.11C1437.56 395.25 1438.35 394.132 1438.87 392.755C1439.39 391.362 1439.65 389.807 1439.65 388.089C1439.65 386.297 1439.38 384.727 1438.85 383.379C1438.3 382.016 1437.54 380.95 1436.58 380.18C1435.6 379.41 1434.46 379.017 1433.16 379.002C1431.97 379.017 1431 379.365 1430.23 380.047C1429.44 380.728 1428.79 381.683 1428.27 382.913C1427.74 384.127 1427.26 385.549 1426.85 387.178L1425.52 392.355C1424.55 396.102 1423.09 399.064 1421.14 401.242C1419.17 403.404 1416.55 404.485 1413.3 404.485C1410.62 404.485 1408.27 403.76 1406.25 402.308C1404.24 400.842 1402.68 398.85 1401.57 396.332C1400.44 393.814 1399.88 390.963 1399.88 387.778C1399.88 384.549 1400.44 381.72 1401.57 379.291C1402.68 376.847 1404.22 374.929 1406.21 373.537C1408.18 372.145 1410.45 371.426 1413.01 371.382V379.313ZM1407.41 344.765H1400.5V308.462H1407.41V322.526H1446V330.701H1407.41V344.765ZM1446 280.818H1400.5V251.224H1407.41L1407.41 272.575H1419.76V252.757H1426.67V272.575H1439.09V251.047H1446V280.818ZM1446 222.169H1400.5V205.106C1400.5 201.611 1401.11 198.678 1402.32 196.308C1403.54 193.924 1405.24 192.124 1407.43 190.909C1409.61 189.68 1412.15 189.065 1415.05 189.065C1417.97 189.065 1420.5 189.688 1422.65 190.932C1424.78 192.161 1426.43 193.975 1427.6 196.375C1428.76 198.774 1429.34 201.722 1429.34 205.217V217.37H1422.49V206.328C1422.49 204.284 1422.21 202.611 1421.65 201.307C1421.07 200.004 1420.24 199.041 1419.14 198.419C1418.03 197.782 1416.67 197.464 1415.05 197.464C1413.44 197.464 1412.06 197.782 1410.92 198.419C1409.76 199.056 1408.89 200.026 1408.3 201.329C1407.69 202.633 1407.39 204.314 1407.39 206.373V213.927H1446V222.169ZM1425.38 198.663L1446 187.399V196.597L1425.38 207.661V198.663Z" fill="white" fill-opacity="0.95"/>
<path d="M1376 771.512H1330.5V742.363H1337.41V763.27H1349.76V744.363H1356.67V763.27H1376V771.512ZM1376 714.047V722.845L1330.5 706.826V696.651L1376 680.61V689.408L1339.83 701.561V701.916L1376 714.047ZM1358.16 713.758V689.763H1364.78V713.758H1358.16ZM1376 653.971H1330.5V645.728H1351.41V645.173L1330.5 627.421V617.357L1350.92 634.953L1376 617.201V627.11L1356.49 640.685L1362.45 645.728H1376V653.971ZM1376 590.984L1330.5 590.984V561.391H1337.41V582.742H1349.76V562.924H1356.67L1356.67 582.742H1369.09V561.213H1376V590.984ZM1376 532.336L1330.5 532.336V514.917C1330.5 511.629 1331.02 508.897 1332.05 506.719C1333.08 504.527 1334.48 502.891 1336.25 501.809C1338.03 500.713 1340.05 500.165 1342.3 500.165C1344.15 500.165 1345.73 500.521 1347.05 501.232C1348.35 501.943 1349.41 502.898 1350.23 504.098C1351.04 505.297 1351.63 506.638 1351.98 508.119H1352.43C1352.52 506.505 1353.01 504.957 1353.92 503.476C1354.8 501.98 1356.06 500.758 1357.69 499.81C1359.32 498.862 1361.29 498.388 1363.6 498.388C1365.96 498.388 1368.08 498.958 1369.96 500.099C1371.82 501.239 1373.3 502.957 1374.38 505.253C1375.46 507.549 1376 510.437 1376 513.918V532.336ZM1369.11 524.093V515.228C1369.11 512.237 1368.54 510.081 1367.4 508.763C1366.25 507.43 1364.77 506.764 1362.96 506.764C1361.61 506.764 1360.4 507.097 1359.31 507.763C1358.22 508.43 1357.36 509.378 1356.74 510.607C1356.1 511.837 1355.78 513.303 1355.78 515.006V524.093H1369.11ZM1349.85 524.093V515.939C1349.85 514.518 1349.59 513.236 1349.07 512.096C1348.54 510.955 1347.79 510.059 1346.83 509.408C1345.85 508.741 1344.7 508.408 1343.36 508.408C1341.6 508.408 1340.15 509.03 1339.01 510.274C1337.87 511.503 1337.3 513.333 1337.3 515.762V524.093H1349.85ZM1330.5 441.889V433.646H1360.23C1363.48 433.646 1366.35 434.416 1368.82 435.957C1371.3 437.482 1373.23 439.63 1374.62 442.4C1376 445.17 1376.69 448.406 1376.69 452.109C1376.69 455.826 1376 459.07 1374.62 461.84C1373.23 464.61 1371.3 466.757 1368.82 468.283C1366.35 469.808 1363.48 470.571 1360.23 470.571H1330.5V462.329H1359.54C1361.43 462.329 1363.12 461.914 1364.6 461.084C1366.08 460.24 1367.25 459.055 1368.09 457.53C1368.92 456.004 1369.33 454.197 1369.33 452.109C1369.33 450.02 1368.92 448.213 1368.09 446.688C1367.25 445.147 1366.08 443.962 1364.6 443.133C1363.12 442.304 1361.43 441.889 1359.54 441.889H1330.5ZM1343.01 379.313C1341.07 379.521 1339.56 380.395 1338.48 381.935C1337.39 383.461 1336.85 385.445 1336.85 387.889C1336.85 389.607 1337.11 391.081 1337.63 392.31C1338.15 393.54 1338.85 394.48 1339.74 395.132C1340.63 395.784 1341.64 396.117 1342.79 396.132C1343.73 396.132 1344.56 395.917 1345.25 395.487C1345.95 395.043 1346.54 394.443 1347.03 393.688C1347.5 392.932 1347.9 392.096 1348.23 391.177C1348.55 390.259 1348.83 389.333 1349.05 388.4L1350.12 384.134C1350.52 382.416 1351.06 380.765 1351.74 379.18C1352.42 377.58 1353.28 376.151 1354.32 374.892C1355.35 373.618 1356.6 372.611 1358.07 371.871C1359.54 371.13 1361.26 370.76 1363.23 370.76C1365.89 370.76 1368.24 371.441 1370.27 372.804C1372.28 374.166 1373.86 376.136 1375 378.713C1376.13 381.276 1376.69 384.379 1376.69 388.022C1376.69 391.562 1376.14 394.636 1375.04 397.243C1373.95 399.835 1372.35 401.864 1370.25 403.33C1368.14 404.782 1365.58 405.567 1362.56 405.685V397.576C1364.14 397.457 1365.46 396.969 1366.51 396.11C1367.56 395.25 1368.35 394.132 1368.87 392.755C1369.39 391.362 1369.65 389.807 1369.65 388.089C1369.65 386.297 1369.38 384.727 1368.85 383.379C1368.3 382.016 1367.54 380.95 1366.58 380.18C1365.6 379.41 1364.46 379.017 1363.16 379.002C1361.97 379.017 1361 379.365 1360.23 380.047C1359.44 380.728 1358.79 381.683 1358.27 382.913C1357.74 384.127 1357.26 385.549 1356.85 387.178L1355.52 392.355C1354.55 396.102 1353.09 399.064 1351.14 401.242C1349.17 403.404 1346.55 404.485 1343.3 404.485C1340.62 404.485 1338.27 403.76 1336.25 402.308C1334.24 400.842 1332.68 398.85 1331.57 396.332C1330.44 393.814 1329.88 390.963 1329.88 387.778C1329.88 384.549 1330.44 381.72 1331.57 379.291C1332.68 376.847 1334.22 374.929 1336.21 373.537C1338.18 372.145 1340.45 371.426 1343.01 371.382V379.313ZM1337.41 344.765H1330.5V308.462H1337.41V322.526H1376V330.701H1337.41V344.765ZM1376 280.818H1330.5V251.224H1337.41L1337.41 272.575H1349.76V252.757H1356.67V272.575H1369.09V251.047H1376V280.818ZM1376 222.169H1330.5V205.106C1330.5 201.611 1331.11 198.678 1332.32 196.308C1333.54 193.924 1335.24 192.124 1337.43 190.909C1339.61 189.68 1342.15 189.065 1345.05 189.065C1347.97 189.065 1350.5 189.688 1352.65 190.932C1354.78 192.161 1356.43 193.975 1357.6 196.375C1358.76 198.774 1359.34 201.722 1359.34 205.217V217.37H1352.49V206.328C1352.49 204.284 1352.21 202.611 1351.65 201.307C1351.07 200.004 1350.24 199.041 1349.14 198.419C1348.03 197.782 1346.67 197.464 1345.05 197.464C1343.44 197.464 1342.06 197.782 1340.92 198.419C1339.76 199.056 1338.89 200.026 1338.3 201.329C1337.69 202.633 1337.39 204.314 1337.39 206.373V213.927H1376V222.169ZM1355.38 198.663L1376 187.399V196.597L1355.38 207.661V198.663Z" fill="white"/>
<path d="M1308 771.512H1262.5V742.363H1269.41V763.27H1281.76V744.363H1288.67V763.27H1308V771.512ZM1308 714.047V722.845L1262.5 706.826V696.651L1308 680.61V689.408L1271.83 701.561V701.916L1308 714.047ZM1290.16 713.758V689.763H1296.78V713.758H1290.16ZM1308 653.971H1262.5V645.728H1283.41V645.173L1262.5 627.421V617.357L1282.92 634.953L1308 617.201V627.11L1288.49 640.685L1294.45 645.728H1308V653.971ZM1308 590.984L1262.5 590.984V561.391H1269.41V582.742H1281.76V562.924H1288.67L1288.67 582.742H1301.09V561.213H1308V590.984ZM1308 532.336L1262.5 532.336V514.917C1262.5 511.629 1263.02 508.897 1264.05 506.719C1265.08 504.527 1266.48 502.891 1268.25 501.809C1270.03 500.713 1272.05 500.165 1274.3 500.165C1276.15 500.165 1277.73 500.521 1279.05 501.232C1280.35 501.943 1281.41 502.898 1282.23 504.098C1283.04 505.297 1283.63 506.638 1283.98 508.119H1284.43C1284.52 506.505 1285.01 504.957 1285.92 503.476C1286.8 501.98 1288.06 500.758 1289.69 499.81C1291.32 498.862 1293.29 498.388 1295.6 498.388C1297.96 498.388 1300.08 498.958 1301.96 500.099C1303.82 501.239 1305.3 502.957 1306.38 505.253C1307.46 507.549 1308 510.437 1308 513.918V532.336ZM1301.11 524.093V515.228C1301.11 512.237 1300.54 510.081 1299.4 508.763C1298.25 507.43 1296.77 506.764 1294.96 506.764C1293.61 506.764 1292.4 507.097 1291.31 507.763C1290.22 508.43 1289.36 509.378 1288.74 510.607C1288.1 511.837 1287.78 513.303 1287.78 515.006V524.093H1301.11ZM1281.85 524.093V515.939C1281.85 514.518 1281.59 513.236 1281.07 512.096C1280.54 510.955 1279.79 510.059 1278.83 509.408C1277.85 508.741 1276.7 508.408 1275.36 508.408C1273.6 508.408 1272.15 509.03 1271.01 510.274C1269.87 511.503 1269.3 513.333 1269.3 515.762V524.093H1281.85ZM1262.5 441.889V433.646H1292.23C1295.48 433.646 1298.35 434.416 1300.82 435.957C1303.3 437.482 1305.23 439.63 1306.62 442.4C1308 445.17 1308.69 448.406 1308.69 452.109C1308.69 455.826 1308 459.07 1306.62 461.84C1305.23 464.61 1303.3 466.757 1300.82 468.283C1298.35 469.808 1295.48 470.571 1292.23 470.571H1262.5V462.329H1291.54C1293.43 462.329 1295.12 461.914 1296.6 461.084C1298.08 460.24 1299.25 459.055 1300.09 457.53C1300.92 456.004 1301.33 454.197 1301.33 452.109C1301.33 450.02 1300.92 448.213 1300.09 446.688C1299.25 445.147 1298.08 443.962 1296.6 443.133C1295.12 442.304 1293.43 441.889 1291.54 441.889H1262.5ZM1275.01 379.313C1273.07 379.521 1271.56 380.395 1270.48 381.935C1269.39 383.461 1268.85 385.445 1268.85 387.889C1268.85 389.607 1269.11 391.081 1269.63 392.31C1270.15 393.54 1270.85 394.48 1271.74 395.132C1272.63 395.784 1273.64 396.117 1274.79 396.132C1275.73 396.132 1276.56 395.917 1277.25 395.487C1277.95 395.043 1278.54 394.443 1279.03 393.688C1279.5 392.932 1279.9 392.096 1280.23 391.177C1280.55 390.259 1280.83 389.333 1281.05 388.4L1282.12 384.134C1282.52 382.416 1283.06 380.765 1283.74 379.18C1284.42 377.58 1285.28 376.151 1286.32 374.892C1287.35 373.618 1288.6 372.611 1290.07 371.871C1291.54 371.13 1293.26 370.76 1295.23 370.76C1297.89 370.76 1300.24 371.441 1302.27 372.804C1304.28 374.166 1305.86 376.136 1307 378.713C1308.13 381.276 1308.69 384.379 1308.69 388.022C1308.69 391.562 1308.14 394.636 1307.04 397.243C1305.95 399.835 1304.35 401.864 1302.25 403.33C1300.14 404.782 1297.58 405.567 1294.56 405.685V397.576C1296.14 397.457 1297.46 396.969 1298.51 396.11C1299.56 395.25 1300.35 394.132 1300.87 392.755C1301.39 391.362 1301.65 389.807 1301.65 388.089C1301.65 386.297 1301.38 384.727 1300.85 383.379C1300.3 382.016 1299.54 380.95 1298.58 380.18C1297.6 379.41 1296.46 379.017 1295.16 379.002C1293.97 379.017 1293 379.365 1292.23 380.047C1291.44 380.728 1290.79 381.683 1290.27 382.913C1289.74 384.127 1289.26 385.549 1288.85 387.178L1287.52 392.355C1286.55 396.102 1285.09 399.064 1283.14 401.242C1281.17 403.404 1278.55 404.485 1275.3 404.485C1272.62 404.485 1270.27 403.76 1268.25 402.308C1266.24 400.842 1264.68 398.85 1263.57 396.332C1262.44 393.814 1261.88 390.963 1261.88 387.778C1261.88 384.549 1262.44 381.72 1263.57 379.291C1264.68 376.847 1266.22 374.929 1268.21 373.537C1270.18 372.145 1272.45 371.426 1275.01 371.382V379.313ZM1269.41 344.765H1262.5V308.462H1269.41V322.526H1308V330.701H1269.41V344.765ZM1308 280.818H1262.5V251.224H1269.41L1269.41 272.575H1281.76V252.757H1288.67V272.575H1301.09V251.047H1308V280.818ZM1308 222.169H1262.5V205.106C1262.5 201.611 1263.11 198.678 1264.32 196.308C1265.54 193.924 1267.24 192.124 1269.43 190.909C1271.61 189.68 1274.15 189.065 1277.05 189.065C1279.97 189.065 1282.5 189.688 1284.65 190.932C1286.78 192.161 1288.43 193.975 1289.6 196.375C1290.76 198.774 1291.34 201.722 1291.34 205.217V217.37H1284.49V206.328C1284.49 204.284 1284.21 202.611 1283.65 201.307C1283.07 200.004 1282.24 199.041 1281.14 198.419C1280.03 197.782 1278.67 197.464 1277.05 197.464C1275.44 197.464 1274.06 197.782 1272.92 198.419C1271.76 199.056 1270.89 200.026 1270.3 201.329C1269.69 202.633 1269.39 204.314 1269.39 206.373V213.927H1308V222.169ZM1287.38 198.663L1308 187.399V196.597L1287.38 207.661V198.663Z" fill="white"/>
<path d="M1250 767.512H1204.5V738.363H1211.41V759.27H1223.76V740.363H1230.67V759.27H1250V767.512ZM1250 710.047V718.845L1204.5 702.826V692.651L1250 676.61V685.408L1213.83 697.561V697.916L1250 710.047ZM1232.16 709.758V685.763H1238.78V709.758H1232.16ZM1250 649.971H1204.5V641.728H1225.41V641.173L1204.5 623.421V613.357L1224.92 630.953L1250 613.201V623.11L1230.49 636.685L1236.45 641.728H1250V649.971ZM1250 586.984L1204.5 586.984V557.391H1211.41V578.742H1223.76V558.924H1230.67L1230.67 578.742H1243.09V557.213H1250V586.984ZM1250 528.336L1204.5 528.336V510.917C1204.5 507.629 1205.02 504.897 1206.05 502.719C1207.08 500.527 1208.48 498.891 1210.25 497.809C1212.03 496.713 1214.05 496.165 1216.3 496.165C1218.15 496.165 1219.73 496.521 1221.05 497.232C1222.35 497.943 1223.41 498.898 1224.23 500.098C1225.04 501.297 1225.63 502.638 1225.98 504.119H1226.43C1226.52 502.505 1227.01 500.957 1227.92 499.476C1228.8 497.98 1230.06 496.758 1231.69 495.81C1233.32 494.862 1235.29 494.388 1237.6 494.388C1239.96 494.388 1242.08 494.958 1243.96 496.099C1245.82 497.239 1247.3 498.957 1248.38 501.253C1249.46 503.549 1250 506.437 1250 509.918V528.336ZM1243.11 520.093V511.228C1243.11 508.237 1242.54 506.081 1241.4 504.763C1240.25 503.43 1238.77 502.764 1236.96 502.764C1235.61 502.764 1234.4 503.097 1233.31 503.763C1232.22 504.43 1231.36 505.378 1230.74 506.607C1230.1 507.837 1229.78 509.303 1229.78 511.006V520.093H1243.11ZM1223.85 520.093V511.939C1223.85 510.518 1223.59 509.236 1223.07 508.096C1222.54 506.955 1221.79 506.059 1220.83 505.408C1219.85 504.741 1218.7 504.408 1217.36 504.408C1215.6 504.408 1214.15 505.03 1213.01 506.274C1211.87 507.503 1211.3 509.333 1211.3 511.762V520.093H1223.85ZM1204.5 437.889V429.646H1234.23C1237.48 429.646 1240.35 430.416 1242.82 431.957C1245.3 433.482 1247.23 435.63 1248.62 438.4C1250 441.17 1250.69 444.406 1250.69 448.109C1250.69 451.826 1250 455.07 1248.62 457.84C1247.23 460.61 1245.3 462.757 1242.82 464.283C1240.35 465.808 1237.48 466.571 1234.23 466.571H1204.5V458.329H1233.54C1235.43 458.329 1237.12 457.914 1238.6 457.084C1240.08 456.24 1241.25 455.055 1242.09 453.53C1242.92 452.004 1243.33 450.197 1243.33 448.109C1243.33 446.02 1242.92 444.213 1242.09 442.688C1241.25 441.147 1240.08 439.962 1238.6 439.133C1237.12 438.304 1235.43 437.889 1233.54 437.889H1204.5ZM1217.01 375.313C1215.07 375.521 1213.56 376.395 1212.48 377.935C1211.39 379.461 1210.85 381.445 1210.85 383.889C1210.85 385.607 1211.11 387.081 1211.63 388.31C1212.15 389.54 1212.85 390.48 1213.74 391.132C1214.63 391.784 1215.64 392.117 1216.79 392.132C1217.73 392.132 1218.56 391.917 1219.25 391.487C1219.95 391.043 1220.54 390.443 1221.03 389.688C1221.5 388.932 1221.9 388.096 1222.23 387.177C1222.55 386.259 1222.83 385.333 1223.05 384.4L1224.12 380.134C1224.52 378.416 1225.06 376.765 1225.74 375.18C1226.42 373.58 1227.28 372.151 1228.32 370.892C1229.35 369.618 1230.6 368.611 1232.07 367.871C1233.54 367.13 1235.26 366.76 1237.23 366.76C1239.89 366.76 1242.24 367.441 1244.27 368.804C1246.28 370.166 1247.86 372.136 1249 374.713C1250.13 377.276 1250.69 380.379 1250.69 384.022C1250.69 387.562 1250.14 390.636 1249.04 393.243C1247.95 395.835 1246.35 397.864 1244.25 399.33C1242.14 400.782 1239.58 401.567 1236.56 401.685V393.576C1238.14 393.457 1239.46 392.969 1240.51 392.11C1241.56 391.25 1242.35 390.132 1242.87 388.755C1243.39 387.362 1243.65 385.807 1243.65 384.089C1243.65 382.297 1243.38 380.727 1242.85 379.379C1242.3 378.016 1241.54 376.95 1240.58 376.18C1239.6 375.41 1238.46 375.017 1237.16 375.002C1235.97 375.017 1235 375.365 1234.23 376.047C1233.44 376.728 1232.79 377.683 1232.27 378.913C1231.74 380.127 1231.26 381.549 1230.85 383.178L1229.52 388.355C1228.55 392.102 1227.09 395.064 1225.14 397.242C1223.17 399.404 1220.55 400.485 1217.3 400.485C1214.62 400.485 1212.27 399.76 1210.25 398.308C1208.24 396.842 1206.68 394.85 1205.57 392.332C1204.44 389.814 1203.88 386.963 1203.88 383.778C1203.88 380.549 1204.44 377.72 1205.57 375.291C1206.68 372.847 1208.22 370.929 1210.21 369.537C1212.18 368.145 1214.45 367.426 1217.01 367.382V375.313ZM1211.41 340.765H1204.5V304.462H1211.41V318.526H1250V326.701H1211.41V340.765ZM1250 276.818H1204.5V247.224H1211.41L1211.41 268.575H1223.76V248.757H1230.67V268.575H1243.09V247.047H1250V276.818ZM1250 218.169H1204.5V201.106C1204.5 197.611 1205.11 194.678 1206.32 192.308C1207.54 189.924 1209.24 188.124 1211.43 186.909C1213.61 185.68 1216.15 185.065 1219.05 185.065C1221.97 185.065 1224.5 185.688 1226.65 186.932C1228.78 188.161 1230.43 189.975 1231.6 192.375C1232.76 194.774 1233.34 197.722 1233.34 201.217V213.37H1226.49V202.328C1226.49 200.284 1226.21 198.611 1225.65 197.307C1225.07 196.004 1224.24 195.041 1223.14 194.419C1222.03 193.782 1220.67 193.464 1219.05 193.464C1217.44 193.464 1216.06 193.782 1214.92 194.419C1213.76 195.056 1212.89 196.026 1212.3 197.329C1211.69 198.633 1211.39 200.314 1211.39 202.373V209.927H1250V218.169ZM1229.38 194.663L1250 183.399V192.597L1229.38 203.661V194.663Z" fill="white"/>
<path d="M1182 767.512H1136.5V738.363H1143.41V759.27H1155.76V740.363H1162.67V759.27H1182V767.512ZM1182 710.047V718.845L1136.5 702.826V692.651L1182 676.61V685.408L1145.83 697.561V697.916L1182 710.047ZM1164.16 709.758V685.763H1170.78V709.758H1164.16ZM1182 649.971H1136.5V641.728H1157.41V641.173L1136.5 623.421V613.357L1156.92 630.953L1182 613.201V623.11L1162.49 636.685L1168.45 641.728H1182V649.971ZM1182 586.984L1136.5 586.984V557.391H1143.41V578.742H1155.76V558.924H1162.67L1162.67 578.742H1175.09V557.213H1182V586.984ZM1182 528.336L1136.5 528.336V510.917C1136.5 507.629 1137.02 504.897 1138.05 502.719C1139.08 500.527 1140.48 498.891 1142.25 497.809C1144.03 496.713 1146.05 496.165 1148.3 496.165C1150.15 496.165 1151.73 496.521 1153.05 497.232C1154.35 497.943 1155.41 498.898 1156.23 500.098C1157.04 501.297 1157.63 502.638 1157.98 504.119H1158.43C1158.52 502.505 1159.01 500.957 1159.92 499.476C1160.8 497.98 1162.06 496.758 1163.69 495.81C1165.32 494.862 1167.29 494.388 1169.6 494.388C1171.96 494.388 1174.08 494.958 1175.96 496.099C1177.82 497.239 1179.3 498.957 1180.38 501.253C1181.46 503.549 1182 506.437 1182 509.918V528.336ZM1175.11 520.093V511.228C1175.11 508.237 1174.54 506.081 1173.4 504.763C1172.25 503.43 1170.77 502.764 1168.96 502.764C1167.61 502.764 1166.4 503.097 1165.31 503.763C1164.22 504.43 1163.36 505.378 1162.74 506.607C1162.1 507.837 1161.78 509.303 1161.78 511.006V520.093H1175.11ZM1155.85 520.093V511.939C1155.85 510.518 1155.59 509.236 1155.07 508.096C1154.54 506.955 1153.79 506.059 1152.83 505.408C1151.85 504.741 1150.7 504.408 1149.36 504.408C1147.6 504.408 1146.15 505.03 1145.01 506.274C1143.87 507.503 1143.3 509.333 1143.3 511.762V520.093H1155.85ZM1136.5 437.889V429.646H1166.23C1169.48 429.646 1172.35 430.416 1174.82 431.957C1177.3 433.482 1179.23 435.63 1180.62 438.4C1182 441.17 1182.69 444.406 1182.69 448.109C1182.69 451.826 1182 455.07 1180.62 457.84C1179.23 460.61 1177.3 462.757 1174.82 464.283C1172.35 465.808 1169.48 466.571 1166.23 466.571H1136.5V458.329H1165.54C1167.43 458.329 1169.12 457.914 1170.6 457.084C1172.08 456.24 1173.25 455.055 1174.09 453.53C1174.92 452.004 1175.33 450.197 1175.33 448.109C1175.33 446.02 1174.92 444.213 1174.09 442.688C1173.25 441.147 1172.08 439.962 1170.6 439.133C1169.12 438.304 1167.43 437.889 1165.54 437.889H1136.5ZM1149.01 375.313C1147.07 375.521 1145.56 376.395 1144.48 377.935C1143.39 379.461 1142.85 381.445 1142.85 383.889C1142.85 385.607 1143.11 387.081 1143.63 388.31C1144.15 389.54 1144.85 390.48 1145.74 391.132C1146.63 391.784 1147.64 392.117 1148.79 392.132C1149.73 392.132 1150.56 391.917 1151.25 391.487C1151.95 391.043 1152.54 390.443 1153.03 389.688C1153.5 388.932 1153.9 388.096 1154.23 387.177C1154.55 386.259 1154.83 385.333 1155.05 384.4L1156.12 380.134C1156.52 378.416 1157.06 376.765 1157.74 375.18C1158.42 373.58 1159.28 372.151 1160.32 370.892C1161.35 369.618 1162.6 368.611 1164.07 367.871C1165.54 367.13 1167.26 366.76 1169.23 366.76C1171.89 366.76 1174.24 367.441 1176.27 368.804C1178.28 370.166 1179.86 372.136 1181 374.713C1182.13 377.276 1182.69 380.379 1182.69 384.022C1182.69 387.562 1182.14 390.636 1181.04 393.243C1179.95 395.835 1178.35 397.864 1176.25 399.33C1174.14 400.782 1171.58 401.567 1168.56 401.685V393.576C1170.14 393.457 1171.46 392.969 1172.51 392.11C1173.56 391.25 1174.35 390.132 1174.87 388.755C1175.39 387.362 1175.65 385.807 1175.65 384.089C1175.65 382.297 1175.38 380.727 1174.85 379.379C1174.3 378.016 1173.54 376.95 1172.58 376.18C1171.6 375.41 1170.46 375.017 1169.16 375.002C1167.97 375.017 1167 375.365 1166.23 376.047C1165.44 376.728 1164.79 377.683 1164.27 378.913C1163.74 380.127 1163.26 381.549 1162.85 383.178L1161.52 388.355C1160.55 392.102 1159.09 395.064 1157.14 397.242C1155.17 399.404 1152.55 400.485 1149.3 400.485C1146.62 400.485 1144.27 399.76 1142.25 398.308C1140.24 396.842 1138.68 394.85 1137.57 392.332C1136.44 389.814 1135.88 386.963 1135.88 383.778C1135.88 380.549 1136.44 377.72 1137.57 375.291C1138.68 372.847 1140.22 370.929 1142.21 369.537C1144.18 368.145 1146.45 367.426 1149.01 367.382V375.313ZM1143.41 340.765H1136.5V304.462H1143.41V318.526H1182V326.701H1143.41V340.765ZM1182 276.818H1136.5V247.224H1143.41L1143.41 268.575H1155.76V248.757H1162.67V268.575H1175.09V247.047H1182V276.818ZM1182 218.169H1136.5V201.106C1136.5 197.611 1137.11 194.678 1138.32 192.308C1139.54 189.924 1141.24 188.124 1143.43 186.909C1145.61 185.68 1148.15 185.065 1151.05 185.065C1153.97 185.065 1156.5 185.688 1158.65 186.932C1160.78 188.161 1162.43 189.975 1163.6 192.375C1164.76 194.774 1165.34 197.722 1165.34 201.217V213.37H1158.49V202.328C1158.49 200.284 1158.21 198.611 1157.65 197.307C1157.07 196.004 1156.24 195.041 1155.14 194.419C1154.03 193.782 1152.67 193.464 1151.05 193.464C1149.44 193.464 1148.06 193.782 1146.92 194.419C1145.76 195.056 1144.89 196.026 1144.3 197.329C1143.69 198.633 1143.39 200.314 1143.39 202.373V209.927H1182V218.169ZM1161.38 194.663L1182 183.399V192.597L1161.38 203.661V194.663Z" fill="white"/>
<path d="M1114 767.512H1068.5V738.363H1075.41V759.27H1087.76V740.363H1094.67V759.27H1114V767.512ZM1114 710.047V718.845L1068.5 702.826V692.651L1114 676.61V685.408L1077.83 697.561V697.916L1114 710.047ZM1096.16 709.758V685.763H1102.78V709.758H1096.16ZM1114 649.971H1068.5V641.728H1089.41V641.173L1068.5 623.421V613.357L1088.92 630.953L1114 613.201V623.11L1094.49 636.685L1100.45 641.728H1114V649.971ZM1114 586.984L1068.5 586.984V557.391H1075.41V578.742H1087.76V558.924H1094.67L1094.67 578.742H1107.09V557.213H1114V586.984ZM1114 528.336L1068.5 528.336V510.917C1068.5 507.629 1069.02 504.897 1070.05 502.719C1071.08 500.527 1072.48 498.891 1074.25 497.809C1076.03 496.713 1078.05 496.165 1080.3 496.165C1082.15 496.165 1083.73 496.521 1085.05 497.232C1086.35 497.943 1087.41 498.898 1088.23 500.098C1089.04 501.297 1089.63 502.638 1089.98 504.119H1090.43C1090.52 502.505 1091.01 500.957 1091.92 499.476C1092.8 497.98 1094.06 496.758 1095.69 495.81C1097.32 494.862 1099.29 494.388 1101.6 494.388C1103.96 494.388 1106.08 494.958 1107.96 496.099C1109.82 497.239 1111.3 498.957 1112.38 501.253C1113.46 503.549 1114 506.437 1114 509.918V528.336ZM1107.11 520.093V511.228C1107.11 508.237 1106.54 506.081 1105.4 504.763C1104.25 503.43 1102.77 502.764 1100.96 502.764C1099.61 502.764 1098.4 503.097 1097.31 503.763C1096.22 504.43 1095.36 505.378 1094.74 506.607C1094.1 507.837 1093.78 509.303 1093.78 511.006V520.093H1107.11ZM1087.85 520.093V511.939C1087.85 510.518 1087.59 509.236 1087.07 508.096C1086.54 506.955 1085.79 506.059 1084.83 505.408C1083.85 504.741 1082.7 504.408 1081.36 504.408C1079.6 504.408 1078.15 505.03 1077.01 506.274C1075.87 507.503 1075.3 509.333 1075.3 511.762V520.093H1087.85ZM1068.5 437.889V429.646H1098.23C1101.48 429.646 1104.35 430.416 1106.82 431.957C1109.3 433.482 1111.23 435.63 1112.62 438.4C1114 441.17 1114.69 444.406 1114.69 448.109C1114.69 451.826 1114 455.07 1112.62 457.84C1111.23 460.61 1109.3 462.757 1106.82 464.283C1104.35 465.808 1101.48 466.571 1098.23 466.571H1068.5V458.329H1097.54C1099.43 458.329 1101.12 457.914 1102.6 457.084C1104.08 456.24 1105.25 455.055 1106.09 453.53C1106.92 452.004 1107.33 450.197 1107.33 448.109C1107.33 446.02 1106.92 444.213 1106.09 442.688C1105.25 441.147 1104.08 439.962 1102.6 439.133C1101.12 438.304 1099.43 437.889 1097.54 437.889H1068.5ZM1081.01 375.313C1079.07 375.521 1077.56 376.395 1076.48 377.935C1075.39 379.461 1074.85 381.445 1074.85 383.889C1074.85 385.607 1075.11 387.081 1075.63 388.31C1076.15 389.54 1076.85 390.48 1077.74 391.132C1078.63 391.784 1079.64 392.117 1080.79 392.132C1081.73 392.132 1082.56 391.917 1083.25 391.487C1083.95 391.043 1084.54 390.443 1085.03 389.688C1085.5 388.932 1085.9 388.096 1086.23 387.177C1086.55 386.259 1086.83 385.333 1087.05 384.4L1088.12 380.134C1088.52 378.416 1089.06 376.765 1089.74 375.18C1090.42 373.58 1091.28 372.151 1092.32 370.892C1093.35 369.618 1094.6 368.611 1096.07 367.871C1097.54 367.13 1099.26 366.76 1101.23 366.76C1103.89 366.76 1106.24 367.441 1108.27 368.804C1110.28 370.166 1111.86 372.136 1113 374.713C1114.13 377.276 1114.69 380.379 1114.69 384.022C1114.69 387.562 1114.14 390.636 1113.04 393.243C1111.95 395.835 1110.35 397.864 1108.25 399.33C1106.14 400.782 1103.58 401.567 1100.56 401.685V393.576C1102.14 393.457 1103.46 392.969 1104.51 392.11C1105.56 391.25 1106.35 390.132 1106.87 388.755C1107.39 387.362 1107.65 385.807 1107.65 384.089C1107.65 382.297 1107.38 380.727 1106.85 379.379C1106.3 378.016 1105.54 376.95 1104.58 376.18C1103.6 375.41 1102.46 375.017 1101.16 375.002C1099.97 375.017 1099 375.365 1098.23 376.047C1097.44 376.728 1096.79 377.683 1096.27 378.913C1095.74 380.127 1095.26 381.549 1094.85 383.178L1093.52 388.355C1092.55 392.102 1091.09 395.064 1089.14 397.242C1087.17 399.404 1084.55 400.485 1081.3 400.485C1078.62 400.485 1076.27 399.76 1074.25 398.308C1072.24 396.842 1070.68 394.85 1069.57 392.332C1068.44 389.814 1067.88 386.963 1067.88 383.778C1067.88 380.549 1068.44 377.72 1069.57 375.291C1070.68 372.847 1072.22 370.929 1074.21 369.537C1076.18 368.145 1078.45 367.426 1081.01 367.382V375.313ZM1075.41 340.765H1068.5V304.462H1075.41V318.526H1114V326.701H1075.41V340.765ZM1114 276.818H1068.5V247.224H1075.41L1075.41 268.575H1087.76V248.757H1094.67V268.575H1107.09V247.047H1114V276.818ZM1114 218.169H1068.5V201.106C1068.5 197.611 1069.11 194.678 1070.32 192.308C1071.54 189.924 1073.24 188.124 1075.43 186.909C1077.61 185.68 1080.15 185.065 1083.05 185.065C1085.97 185.065 1088.5 185.688 1090.65 186.932C1092.78 188.161 1094.43 189.975 1095.6 192.375C1096.76 194.774 1097.34 197.722 1097.34 201.217V213.37H1090.49V202.328C1090.49 200.284 1090.21 198.611 1089.65 197.307C1089.07 196.004 1088.24 195.041 1087.14 194.419C1086.03 193.782 1084.67 193.464 1083.05 193.464C1081.44 193.464 1080.06 193.782 1078.92 194.419C1077.76 195.056 1076.89 196.026 1076.3 197.329C1075.69 198.633 1075.39 200.314 1075.39 202.373V209.927H1114V218.169ZM1093.38 194.663L1114 183.399V192.597L1093.38 203.661V194.663Z" fill="white"/>
<path d="M1046 767.512H1000.5V738.363H1007.41V759.27H1019.76V740.363H1026.67V759.27H1046V767.512ZM1046 710.047V718.845L1000.5 702.826V692.651L1046 676.61V685.408L1009.83 697.561V697.916L1046 710.047ZM1028.16 709.758V685.763H1034.78V709.758H1028.16ZM1046 649.971H1000.5V641.728H1021.41V641.173L1000.5 623.421V613.357L1020.92 630.953L1046 613.201V623.11L1026.49 636.685L1032.45 641.728H1046V649.971ZM1046 586.984L1000.5 586.984V557.391H1007.41V578.742H1019.76V558.924H1026.67L1026.67 578.742H1039.09V557.213H1046V586.984ZM1046 528.336L1000.5 528.336V510.917C1000.5 507.629 1001.02 504.897 1002.05 502.719C1003.08 500.527 1004.48 498.891 1006.25 497.809C1008.03 496.713 1010.05 496.165 1012.3 496.165C1014.15 496.165 1015.73 496.521 1017.05 497.232C1018.35 497.943 1019.41 498.898 1020.23 500.098C1021.04 501.297 1021.63 502.638 1021.98 504.119H1022.43C1022.52 502.505 1023.01 500.957 1023.92 499.476C1024.8 497.98 1026.06 496.758 1027.69 495.81C1029.32 494.862 1031.29 494.388 1033.6 494.388C1035.96 494.388 1038.08 494.958 1039.96 496.099C1041.82 497.239 1043.3 498.957 1044.38 501.253C1045.46 503.549 1046 506.437 1046 509.918V528.336ZM1039.11 520.093V511.228C1039.11 508.237 1038.54 506.081 1037.4 504.763C1036.25 503.43 1034.77 502.764 1032.96 502.764C1031.61 502.764 1030.4 503.097 1029.31 503.763C1028.22 504.43 1027.36 505.378 1026.74 506.607C1026.1 507.837 1025.78 509.303 1025.78 511.006V520.093H1039.11ZM1019.85 520.093V511.939C1019.85 510.518 1019.59 509.236 1019.07 508.096C1018.54 506.955 1017.79 506.059 1016.83 505.408C1015.85 504.741 1014.7 504.408 1013.36 504.408C1011.6 504.408 1010.15 505.03 1009.01 506.274C1007.87 507.503 1007.3 509.333 1007.3 511.762V520.093H1019.85ZM1000.5 437.889L1000.5 429.646H1030.23C1033.48 429.646 1036.35 430.416 1038.82 431.957C1041.3 433.482 1043.23 435.63 1044.62 438.4C1046 441.17 1046.69 444.406 1046.69 448.109C1046.69 451.826 1046 455.07 1044.62 457.84C1043.23 460.61 1041.3 462.757 1038.82 464.283C1036.35 465.808 1033.48 466.571 1030.23 466.571H1000.5V458.329H1029.54C1031.43 458.329 1033.12 457.914 1034.6 457.084C1036.08 456.24 1037.25 455.055 1038.09 453.53C1038.92 452.004 1039.33 450.197 1039.33 448.109C1039.33 446.02 1038.92 444.213 1038.09 442.688C1037.25 441.147 1036.08 439.962 1034.6 439.133C1033.12 438.304 1031.43 437.889 1029.54 437.889H1000.5ZM1013.01 375.313C1011.07 375.521 1009.56 376.395 1008.48 377.935C1007.39 379.461 1006.85 381.445 1006.85 383.889C1006.85 385.607 1007.11 387.081 1007.63 388.31C1008.15 389.54 1008.85 390.48 1009.74 391.132C1010.63 391.784 1011.64 392.117 1012.79 392.132C1013.73 392.132 1014.56 391.917 1015.25 391.487C1015.95 391.043 1016.54 390.443 1017.03 389.688C1017.5 388.932 1017.9 388.096 1018.23 387.177C1018.55 386.259 1018.83 385.333 1019.05 384.4L1020.12 380.134C1020.52 378.416 1021.06 376.765 1021.74 375.18C1022.42 373.58 1023.28 372.151 1024.32 370.892C1025.35 369.618 1026.6 368.611 1028.07 367.871C1029.54 367.13 1031.26 366.76 1033.23 366.76C1035.89 366.76 1038.24 367.441 1040.27 368.804C1042.28 370.166 1043.86 372.136 1045 374.713C1046.13 377.276 1046.69 380.379 1046.69 384.022C1046.69 387.562 1046.14 390.636 1045.04 393.243C1043.95 395.835 1042.35 397.864 1040.25 399.33C1038.14 400.782 1035.58 401.567 1032.56 401.685V393.576C1034.14 393.457 1035.46 392.969 1036.51 392.11C1037.56 391.25 1038.35 390.132 1038.87 388.755C1039.39 387.362 1039.65 385.807 1039.65 384.089C1039.65 382.297 1039.38 380.727 1038.85 379.379C1038.3 378.016 1037.54 376.95 1036.58 376.18C1035.6 375.41 1034.46 375.017 1033.16 375.002C1031.97 375.017 1031 375.365 1030.23 376.047C1029.44 376.728 1028.79 377.683 1028.27 378.913C1027.74 380.127 1027.26 381.549 1026.85 383.178L1025.52 388.355C1024.55 392.102 1023.09 395.064 1021.14 397.242C1019.17 399.404 1016.55 400.485 1013.3 400.485C1010.62 400.485 1008.27 399.76 1006.25 398.308C1004.24 396.842 1002.68 394.85 1001.57 392.332C1000.44 389.814 999.877 386.963 999.877 383.778C999.877 380.549 1000.44 377.72 1001.57 375.291C1002.68 372.847 1004.22 370.929 1006.21 369.537C1008.18 368.145 1010.45 367.426 1013.01 367.382V375.313ZM1007.41 340.765H1000.5V304.462H1007.41V318.526H1046V326.701H1007.41V340.765ZM1046 276.818H1000.5V247.224H1007.41V268.575H1019.76V248.757H1026.67V268.575H1039.09V247.047H1046V276.818ZM1046 218.169H1000.5V201.106C1000.5 197.611 1001.11 194.678 1002.32 192.308C1003.54 189.924 1005.24 188.124 1007.43 186.909C1009.61 185.68 1012.15 185.065 1015.05 185.065C1017.97 185.065 1020.5 185.688 1022.65 186.932C1024.78 188.161 1026.43 189.975 1027.6 192.375C1028.76 194.774 1029.34 197.722 1029.34 201.217V213.37H1022.49V202.328C1022.49 200.284 1022.21 198.611 1021.65 197.307C1021.07 196.004 1020.24 195.041 1019.14 194.419C1018.03 193.782 1016.67 193.464 1015.05 193.464C1013.44 193.464 1012.06 193.782 1010.92 194.419C1009.76 195.056 1008.89 196.026 1008.3 197.329C1007.69 198.633 1007.39 200.314 1007.39 202.373V209.927H1046V218.169ZM1025.38 194.663L1046 183.399V192.597L1025.38 203.661V194.663Z" fill="white"/>
<path d="M978 767.512H932.499V738.363H939.409V759.27H951.761V740.363H958.671V759.27H978V767.512ZM978 710.047V718.845L932.499 702.826V692.651L978 676.61V685.408L941.83 697.561V697.916L978 710.047ZM960.16 709.758V685.763H966.78L966.78 709.758H960.16ZM978 649.971H932.499V641.728H953.406V641.173L932.499 623.421V613.357L952.917 630.953L978 613.201V623.11L958.493 636.685L964.448 641.728H978V649.971ZM978 586.984L932.499 586.984V557.391H939.409V578.742H951.761V558.924H958.671V578.742H971.09V557.213H978V586.984ZM978 528.336L932.499 528.336V510.917C932.499 507.629 933.018 504.897 934.054 502.719C935.076 500.527 936.476 498.891 938.253 497.809C940.031 496.713 942.045 496.165 944.297 496.165C946.148 496.165 947.733 496.521 949.051 497.232C950.354 497.943 951.413 498.898 952.228 500.098C953.043 501.297 953.628 502.638 953.983 504.119H954.428C954.516 502.505 955.013 500.957 955.916 499.476C956.805 497.98 958.064 496.758 959.693 495.81C961.322 494.862 963.292 494.388 965.603 494.388C967.958 494.388 970.076 494.958 971.957 496.099C973.823 497.239 975.297 498.957 976.378 501.253C977.459 503.549 978 506.437 978 509.918V528.336ZM971.113 520.093V511.228C971.113 508.237 970.542 506.081 969.402 504.763C968.247 503.43 966.766 502.764 964.959 502.764C963.611 502.764 962.396 503.097 961.315 503.763C960.219 504.43 959.36 505.378 958.738 506.607C958.101 507.837 957.782 509.303 957.782 511.006V520.093H971.113ZM951.85 520.093V511.939C951.85 510.518 951.591 509.236 951.073 508.096C950.54 506.955 949.792 506.059 948.829 505.408C947.851 504.741 946.696 504.408 945.363 504.408C943.6 504.408 942.149 505.03 941.008 506.274C939.868 507.503 939.298 509.333 939.298 511.762V520.093H951.85ZM932.499 437.889L932.499 429.646H962.226C965.484 429.646 968.35 430.416 970.824 431.957C973.297 433.482 975.23 435.63 976.623 438.4C978 441.17 978.689 444.406 978.689 448.109C978.689 451.826 978 455.07 976.623 457.84C975.23 460.61 973.297 462.757 970.824 464.283C968.35 465.808 965.484 466.571 962.226 466.571H932.499V458.329H961.537C963.433 458.329 965.121 457.914 966.603 457.084C968.084 456.24 969.246 455.055 970.091 453.53C970.92 452.004 971.335 450.197 971.335 448.109C971.335 446.02 970.92 444.213 970.091 442.688C969.246 441.147 968.084 439.962 966.603 439.133C965.121 438.304 963.433 437.889 961.537 437.889H932.499ZM945.007 375.313C943.067 375.521 941.556 376.395 940.475 377.935C939.394 379.461 938.853 381.445 938.853 383.889C938.853 385.607 939.112 387.081 939.631 388.31C940.149 389.54 940.853 390.48 941.742 391.132C942.63 391.784 943.645 392.117 944.785 392.132C945.733 392.132 946.555 391.917 947.251 391.487C947.948 391.043 948.54 390.443 949.029 389.688C949.503 388.932 949.903 388.096 950.229 387.177C950.554 386.259 950.828 385.333 951.051 384.4L952.117 380.134C952.517 378.416 953.057 376.765 953.739 375.18C954.42 373.58 955.279 372.151 956.316 370.892C957.353 369.618 958.604 368.611 960.071 367.871C961.537 367.13 963.255 366.76 965.225 366.76C967.891 366.76 970.239 367.441 972.268 368.804C974.282 370.166 975.86 372.136 977 374.713C978.126 377.276 978.689 380.379 978.689 384.022C978.689 387.562 978.141 390.636 977.045 393.243C975.949 395.835 974.349 397.864 972.246 399.33C970.143 400.782 967.58 401.567 964.559 401.685V393.576C966.143 393.457 967.462 392.969 968.513 392.11C969.565 391.25 970.35 390.132 970.868 388.755C971.387 387.362 971.646 385.807 971.646 384.089C971.646 382.297 971.379 380.727 970.846 379.379C970.298 378.016 969.543 376.95 968.58 376.18C967.602 375.41 966.462 375.017 965.158 375.002C963.974 375.017 962.996 375.365 962.226 376.047C961.441 376.728 960.789 377.683 960.271 378.913C959.737 380.127 959.263 381.549 958.849 383.178L957.516 388.355C956.553 392.102 955.094 395.064 953.139 397.242C951.169 399.404 948.555 400.485 945.296 400.485C942.615 400.485 940.268 399.76 938.253 398.308C936.239 396.842 934.676 394.85 933.566 392.332C932.44 389.814 931.877 386.963 931.877 383.778C931.877 380.549 932.44 377.72 933.566 375.291C934.676 372.847 936.224 370.929 938.209 369.537C940.179 368.145 942.445 367.426 945.007 367.382V375.313ZM939.409 340.765H932.499V304.462H939.409V318.526H978V326.701H939.409V340.765ZM978 276.818H932.499V247.224H939.409V268.575H951.761V248.757H958.671V268.575H971.09V247.047H978V276.818ZM978 218.169H932.499V201.106C932.499 197.611 933.106 194.678 934.321 192.308C935.536 189.924 937.239 188.124 939.431 186.909C941.608 185.68 944.148 185.065 947.051 185.065C949.969 185.065 952.502 185.688 954.65 186.932C956.783 188.161 958.434 189.975 959.604 192.375C960.759 194.774 961.337 197.722 961.337 201.217V213.37H954.494V202.328C954.494 200.284 954.213 198.611 953.65 197.307C953.072 196.004 952.235 195.041 951.139 194.419C950.029 193.782 948.666 193.464 947.051 193.464C945.437 193.464 944.06 193.782 942.919 194.419C941.764 195.056 940.89 196.026 940.297 197.329C939.69 198.633 939.387 200.314 939.387 202.373V209.927H978V218.169ZM957.382 194.663L978 183.399V192.597L957.382 203.661V194.663Z" fill="white"/>
<path d="M910 767.512H864.499V738.363H871.409V759.27H883.761V740.363H890.671V759.27H910V767.512ZM910 710.047V718.845L864.499 702.826V692.651L910 676.61V685.408L873.83 697.561V697.916L910 710.047ZM892.16 709.758V685.763H898.78L898.78 709.758H892.16ZM910 649.971H864.499V641.728H885.406V641.173L864.499 623.421V613.357L884.917 630.953L910 613.201V623.11L890.493 636.685L896.448 641.728H910V649.971ZM910 586.984L864.499 586.984V557.391H871.409V578.742H883.761V558.924H890.671V578.742H903.09V557.213H910V586.984ZM910 528.336L864.499 528.336V510.917C864.499 507.629 865.018 504.897 866.054 502.719C867.076 500.527 868.476 498.891 870.253 497.809C872.031 496.713 874.045 496.165 876.297 496.165C878.148 496.165 879.733 496.521 881.051 497.232C882.354 497.943 883.413 498.898 884.228 500.098C885.043 501.297 885.628 502.638 885.983 504.119H886.428C886.516 502.505 887.013 500.957 887.916 499.476C888.805 497.98 890.064 496.758 891.693 495.81C893.322 494.862 895.292 494.388 897.603 494.388C899.958 494.388 902.076 494.958 903.957 496.099C905.823 497.239 907.297 498.957 908.378 501.253C909.459 503.549 910 506.437 910 509.918V528.336ZM903.113 520.093V511.228C903.113 508.237 902.542 506.081 901.402 504.763C900.247 503.43 898.766 502.764 896.959 502.764C895.611 502.764 894.396 503.097 893.315 503.763C892.219 504.43 891.36 505.378 890.738 506.607C890.101 507.837 889.782 509.303 889.782 511.006V520.093H903.113ZM883.85 520.093V511.939C883.85 510.518 883.591 509.236 883.073 508.096C882.54 506.955 881.792 506.059 880.829 505.408C879.851 504.741 878.696 504.408 877.363 504.408C875.6 504.408 874.149 505.03 873.008 506.274C871.868 507.503 871.298 509.333 871.298 511.762V520.093H883.85ZM864.499 437.889L864.499 429.646H894.226C897.484 429.646 900.35 430.416 902.824 431.957C905.297 433.482 907.23 435.63 908.623 438.4C910 441.17 910.689 444.406 910.689 448.109C910.689 451.826 910 455.07 908.623 457.84C907.23 460.61 905.297 462.757 902.824 464.283C900.35 465.808 897.484 466.571 894.226 466.571H864.499V458.329H893.537C895.433 458.329 897.121 457.914 898.603 457.084C900.084 456.24 901.246 455.055 902.091 453.53C902.92 452.004 903.335 450.197 903.335 448.109C903.335 446.02 902.92 444.213 902.091 442.688C901.246 441.147 900.084 439.962 898.603 439.133C897.121 438.304 895.433 437.889 893.537 437.889H864.499ZM877.007 375.313C875.067 375.521 873.556 376.395 872.475 377.935C871.394 379.461 870.853 381.445 870.853 383.889C870.853 385.607 871.112 387.081 871.631 388.31C872.149 389.54 872.853 390.48 873.742 391.132C874.63 391.784 875.645 392.117 876.785 392.132C877.733 392.132 878.555 391.917 879.251 391.487C879.948 391.043 880.54 390.443 881.029 389.688C881.503 388.932 881.903 388.096 882.229 387.177C882.554 386.259 882.828 385.333 883.051 384.4L884.117 380.134C884.517 378.416 885.057 376.765 885.739 375.18C886.42 373.58 887.279 372.151 888.316 370.892C889.353 369.618 890.604 368.611 892.071 367.871C893.537 367.13 895.255 366.76 897.225 366.76C899.891 366.76 902.239 367.441 904.268 368.804C906.282 370.166 907.86 372.136 909 374.713C910.126 377.276 910.689 380.379 910.689 384.022C910.689 387.562 910.141 390.636 909.045 393.243C907.949 395.835 906.349 397.864 904.246 399.33C902.143 400.782 899.58 401.567 896.559 401.685V393.576C898.143 393.457 899.462 392.969 900.513 392.11C901.565 391.25 902.35 390.132 902.868 388.755C903.387 387.362 903.646 385.807 903.646 384.089C903.646 382.297 903.379 380.727 902.846 379.379C902.298 378.016 901.543 376.95 900.58 376.18C899.602 375.41 898.462 375.017 897.158 375.002C895.974 375.017 894.996 375.365 894.226 376.047C893.441 376.728 892.789 377.683 892.271 378.913C891.737 380.127 891.263 381.549 890.849 383.178L889.516 388.355C888.553 392.102 887.094 395.064 885.139 397.242C883.169 399.404 880.555 400.485 877.296 400.485C874.615 400.485 872.268 399.76 870.253 398.308C868.239 396.842 866.676 394.85 865.566 392.332C864.44 389.814 863.877 386.963 863.877 383.778C863.877 380.549 864.44 377.72 865.566 375.291C866.676 372.847 868.224 370.929 870.209 369.537C872.179 368.145 874.445 367.426 877.007 367.382V375.313ZM871.409 340.765H864.499V304.462H871.409V318.526H910V326.701H871.409V340.765ZM910 276.818H864.499V247.224H871.409V268.575H883.761V248.757H890.671V268.575H903.09V247.047H910V276.818ZM910 218.169H864.499V201.106C864.499 197.611 865.106 194.678 866.321 192.308C867.536 189.924 869.239 188.124 871.431 186.909C873.608 185.68 876.148 185.065 879.051 185.065C881.969 185.065 884.502 185.688 886.65 186.932C888.783 188.161 890.434 189.975 891.604 192.375C892.759 194.774 893.337 197.722 893.337 201.217V213.37H886.494V202.328C886.494 200.284 886.213 198.611 885.65 197.307C885.072 196.004 884.235 195.041 883.139 194.419C882.029 193.782 880.666 193.464 879.051 193.464C877.437 193.464 876.06 193.782 874.919 194.419C873.764 195.056 872.89 196.026 872.297 197.329C871.69 198.633 871.387 200.314 871.387 202.373V209.927H910V218.169ZM889.382 194.663L910 183.399V192.597L889.382 203.661V194.663Z" fill="white"/>
<path d="M842 767.512H796.499V738.363H803.409V759.27H815.761V740.363H822.671V759.27H842V767.512ZM842 710.047V718.845L796.499 702.826V692.651L842 676.61V685.408L805.83 697.561V697.916L842 710.047ZM824.16 709.758V685.763H830.78L830.78 709.758H824.16ZM842 649.971H796.499V641.728H817.406V641.173L796.499 623.421V613.357L816.917 630.953L842 613.201V623.11L822.493 636.685L828.448 641.728H842V649.971ZM842 586.984L796.499 586.984V557.391H803.409V578.742H815.761V558.924H822.671V578.742H835.09V557.213H842V586.984ZM842 528.336L796.499 528.336V510.917C796.499 507.629 797.018 504.897 798.054 502.719C799.076 500.527 800.476 498.891 802.253 497.809C804.031 496.713 806.045 496.165 808.297 496.165C810.148 496.165 811.733 496.521 813.051 497.232C814.354 497.943 815.413 498.898 816.228 500.098C817.043 501.297 817.628 502.638 817.983 504.119H818.428C818.516 502.505 819.013 500.957 819.916 499.476C820.805 497.98 822.064 496.758 823.693 495.81C825.322 494.862 827.292 494.388 829.603 494.388C831.958 494.388 834.076 494.958 835.957 496.099C837.823 497.239 839.297 498.957 840.378 501.253C841.459 503.549 842 506.437 842 509.918V528.336ZM835.113 520.093V511.228C835.113 508.237 834.542 506.081 833.402 504.763C832.247 503.43 830.766 502.764 828.959 502.764C827.611 502.764 826.396 503.097 825.315 503.763C824.219 504.43 823.36 505.378 822.738 506.607C822.101 507.837 821.782 509.303 821.782 511.006V520.093H835.113ZM815.85 520.093V511.939C815.85 510.518 815.591 509.236 815.073 508.096C814.54 506.955 813.792 506.059 812.829 505.408C811.851 504.741 810.696 504.408 809.363 504.408C807.6 504.408 806.149 505.03 805.008 506.274C803.868 507.503 803.298 509.333 803.298 511.762V520.093H815.85ZM796.499 437.889L796.499 429.646H826.226C829.484 429.646 832.35 430.416 834.824 431.957C837.297 433.482 839.23 435.63 840.623 438.4C842 441.17 842.689 444.406 842.689 448.109C842.689 451.826 842 455.07 840.623 457.84C839.23 460.61 837.297 462.757 834.824 464.283C832.35 465.808 829.484 466.571 826.226 466.571H796.499V458.329H825.537C827.433 458.329 829.121 457.914 830.603 457.084C832.084 456.24 833.246 455.055 834.091 453.53C834.92 452.004 835.335 450.197 835.335 448.109C835.335 446.02 834.92 444.213 834.091 442.688C833.246 441.147 832.084 439.962 830.603 439.133C829.121 438.304 827.433 437.889 825.537 437.889H796.499ZM809.007 375.313C807.067 375.521 805.556 376.395 804.475 377.935C803.394 379.461 802.853 381.445 802.853 383.889C802.853 385.607 803.112 387.081 803.631 388.31C804.149 389.54 804.853 390.48 805.742 391.132C806.63 391.784 807.645 392.117 808.785 392.132C809.733 392.132 810.555 391.917 811.251 391.487C811.948 391.043 812.54 390.443 813.029 389.688C813.503 388.932 813.903 388.096 814.229 387.177C814.554 386.259 814.828 385.333 815.051 384.4L816.117 380.134C816.517 378.416 817.057 376.765 817.739 375.18C818.42 373.58 819.279 372.151 820.316 370.892C821.353 369.618 822.604 368.611 824.071 367.871C825.537 367.13 827.255 366.76 829.225 366.76C831.891 366.76 834.239 367.441 836.268 368.804C838.282 370.166 839.86 372.136 841 374.713C842.126 377.276 842.689 380.379 842.689 384.022C842.689 387.562 842.141 390.636 841.045 393.243C839.949 395.835 838.349 397.864 836.246 399.33C834.143 400.782 831.58 401.567 828.559 401.685V393.576C830.143 393.457 831.462 392.969 832.513 392.11C833.565 391.25 834.35 390.132 834.868 388.755C835.387 387.362 835.646 385.807 835.646 384.089C835.646 382.297 835.379 380.727 834.846 379.379C834.298 378.016 833.543 376.95 832.58 376.18C831.602 375.41 830.462 375.017 829.158 375.002C827.974 375.017 826.996 375.365 826.226 376.047C825.441 376.728 824.789 377.683 824.271 378.913C823.737 380.127 823.263 381.549 822.849 383.178L821.516 388.355C820.553 392.102 819.094 395.064 817.139 397.242C815.169 399.404 812.555 400.485 809.296 400.485C806.615 400.485 804.268 399.76 802.253 398.308C800.239 396.842 798.676 394.85 797.566 392.332C796.44 389.814 795.877 386.963 795.877 383.778C795.877 380.549 796.44 377.72 797.566 375.291C798.676 372.847 800.224 370.929 802.209 369.537C804.179 368.145 806.445 367.426 809.007 367.382V375.313ZM803.409 340.765H796.499V304.462H803.409V318.526H842V326.701H803.409V340.765ZM842 276.818H796.499V247.224H803.409V268.575H815.761V248.757H822.671V268.575H835.09V247.047H842V276.818ZM842 218.169H796.499V201.106C796.499 197.611 797.106 194.678 798.321 192.308C799.536 189.924 801.239 188.124 803.431 186.909C805.608 185.68 808.148 185.065 811.051 185.065C813.969 185.065 816.502 185.688 818.65 186.932C820.783 188.161 822.434 189.975 823.604 192.375C824.759 194.774 825.337 197.722 825.337 201.217V213.37H818.494V202.328C818.494 200.284 818.213 198.611 817.65 197.307C817.072 196.004 816.235 195.041 815.139 194.419C814.029 193.782 812.666 193.464 811.051 193.464C809.437 193.464 808.06 193.782 806.919 194.419C805.764 195.056 804.89 196.026 804.297 197.329C803.69 198.633 803.387 200.314 803.387 202.373V209.927H842V218.169ZM821.382 194.663L842 183.399V192.597L821.382 203.661V194.663Z" fill="white"/>
<path d="M774 767.512H728.499V738.363H735.409V759.27H747.761V740.363H754.671V759.27H774V767.512ZM774 710.047V718.845L728.499 702.826V692.651L774 676.61V685.408L737.83 697.561V697.916L774 710.047ZM756.16 709.758V685.763H762.78L762.78 709.758H756.16ZM774 649.971H728.499V641.728H749.406V641.173L728.499 623.421V613.357L748.917 630.953L774 613.201V623.11L754.493 636.685L760.448 641.728H774V649.971ZM774 586.984L728.499 586.984V557.391H735.409V578.742H747.761V558.924H754.671V578.742H767.09V557.213H774V586.984ZM774 528.336L728.499 528.336V510.917C728.499 507.629 729.018 504.897 730.054 502.719C731.076 500.527 732.476 498.891 734.253 497.809C736.031 496.713 738.045 496.165 740.297 496.165C742.148 496.165 743.733 496.521 745.051 497.232C746.354 497.943 747.413 498.898 748.228 500.098C749.043 501.297 749.628 502.638 749.983 504.119H750.428C750.516 502.505 751.013 500.957 751.916 499.476C752.805 497.98 754.064 496.758 755.693 495.81C757.322 494.862 759.292 494.388 761.603 494.388C763.958 494.388 766.076 494.958 767.957 496.099C769.823 497.239 771.297 498.957 772.378 501.253C773.459 503.549 774 506.437 774 509.918V528.336ZM767.113 520.093V511.228C767.113 508.237 766.542 506.081 765.402 504.763C764.247 503.43 762.766 502.764 760.959 502.764C759.611 502.764 758.396 503.097 757.315 503.763C756.219 504.43 755.36 505.378 754.738 506.607C754.101 507.837 753.782 509.303 753.782 511.006V520.093H767.113ZM747.85 520.093V511.939C747.85 510.518 747.591 509.236 747.073 508.096C746.54 506.955 745.792 506.059 744.829 505.408C743.851 504.741 742.696 504.408 741.363 504.408C739.6 504.408 738.149 505.03 737.008 506.274C735.868 507.503 735.298 509.333 735.298 511.762V520.093H747.85ZM728.499 437.889L728.499 429.646H758.226C761.484 429.646 764.35 430.416 766.824 431.957C769.297 433.482 771.23 435.63 772.623 438.4C774 441.17 774.689 444.406 774.689 448.109C774.689 451.826 774 455.07 772.623 457.84C771.23 460.61 769.297 462.757 766.824 464.283C764.35 465.808 761.484 466.571 758.226 466.571H728.499V458.329H757.537C759.433 458.329 761.121 457.914 762.603 457.084C764.084 456.24 765.246 455.055 766.091 453.53C766.92 452.004 767.335 450.197 767.335 448.109C767.335 446.02 766.92 444.213 766.091 442.688C765.246 441.147 764.084 439.962 762.603 439.133C761.121 438.304 759.433 437.889 757.537 437.889H728.499ZM741.007 375.313C739.067 375.521 737.556 376.395 736.475 377.935C735.394 379.461 734.853 381.445 734.853 383.889C734.853 385.607 735.112 387.081 735.631 388.31C736.149 389.54 736.853 390.48 737.742 391.132C738.63 391.784 739.645 392.117 740.785 392.132C741.733 392.132 742.555 391.917 743.251 391.487C743.948 391.043 744.54 390.443 745.029 389.688C745.503 388.932 745.903 388.096 746.229 387.177C746.554 386.259 746.828 385.333 747.051 384.4L748.117 380.134C748.517 378.416 749.057 376.765 749.739 375.18C750.42 373.58 751.279 372.151 752.316 370.892C753.353 369.618 754.604 368.611 756.071 367.871C757.537 367.13 759.255 366.76 761.225 366.76C763.891 366.76 766.239 367.441 768.268 368.804C770.282 370.166 771.86 372.136 773 374.713C774.126 377.276 774.689 380.379 774.689 384.022C774.689 387.562 774.141 390.636 773.045 393.243C771.949 395.835 770.349 397.864 768.246 399.33C766.143 400.782 763.58 401.567 760.559 401.685V393.576C762.143 393.457 763.462 392.969 764.513 392.11C765.565 391.25 766.35 390.132 766.868 388.755C767.387 387.362 767.646 385.807 767.646 384.089C767.646 382.297 767.379 380.727 766.846 379.379C766.298 378.016 765.543 376.95 764.58 376.18C763.602 375.41 762.462 375.017 761.158 375.002C759.974 375.017 758.996 375.365 758.226 376.047C757.441 376.728 756.789 377.683 756.271 378.913C755.737 380.127 755.263 381.549 754.849 383.178L753.516 388.355C752.553 392.102 751.094 395.064 749.139 397.242C747.169 399.404 744.555 400.485 741.296 400.485C738.615 400.485 736.268 399.76 734.253 398.308C732.239 396.842 730.676 394.85 729.566 392.332C728.44 389.814 727.877 386.963 727.877 383.778C727.877 380.549 728.44 377.72 729.566 375.291C730.676 372.847 732.224 370.929 734.209 369.537C736.179 368.145 738.445 367.426 741.007 367.382V375.313ZM735.409 340.765H728.499V304.462H735.409V318.526H774V326.701H735.409V340.765ZM774 276.818H728.499V247.224H735.409V268.575H747.761V248.757H754.671V268.575H767.09V247.047H774V276.818ZM774 218.169H728.499V201.106C728.499 197.611 729.106 194.678 730.321 192.308C731.536 189.924 733.239 188.124 735.431 186.909C737.608 185.68 740.148 185.065 743.051 185.065C745.969 185.065 748.502 185.688 750.65 186.932C752.783 188.161 754.434 189.975 755.604 192.375C756.759 194.774 757.337 197.722 757.337 201.217V213.37H750.494V202.328C750.494 200.284 750.213 198.611 749.65 197.307C749.072 196.004 748.235 195.041 747.139 194.419C746.029 193.782 744.666 193.464 743.051 193.464C741.437 193.464 740.06 193.782 738.919 194.419C737.764 195.056 736.89 196.026 736.297 197.329C735.69 198.633 735.387 200.314 735.387 202.373V209.927H774V218.169ZM753.382 194.663L774 183.399V192.597L753.382 203.661V194.663Z" fill="white"/>
<path d="M706 767.512H660.499V738.363H667.409V759.27H679.761V740.363H686.671V759.27H706V767.512ZM706 710.047V718.845L660.499 702.826V692.651L706 676.61V685.408L669.83 697.561V697.916L706 710.047ZM688.16 709.758V685.763H694.78L694.78 709.758H688.16ZM706 649.971H660.499V641.728H681.406V641.173L660.499 623.421V613.357L680.917 630.953L706 613.201V623.11L686.493 636.685L692.448 641.728H706V649.971ZM706 586.984L660.499 586.984V557.391H667.409V578.742H679.761V558.924H686.671V578.742H699.09V557.213H706V586.984ZM706 528.336L660.499 528.336V510.917C660.499 507.629 661.018 504.897 662.054 502.719C663.076 500.527 664.476 498.891 666.253 497.809C668.031 496.713 670.045 496.165 672.297 496.165C674.148 496.165 675.733 496.521 677.051 497.232C678.354 497.943 679.413 498.898 680.228 500.098C681.043 501.297 681.628 502.638 681.983 504.119H682.428C682.516 502.505 683.013 500.957 683.916 499.476C684.805 497.98 686.064 496.758 687.693 495.81C689.322 494.862 691.292 494.388 693.603 494.388C695.958 494.388 698.076 494.958 699.957 496.099C701.823 497.239 703.297 498.957 704.378 501.253C705.459 503.549 706 506.437 706 509.918V528.336ZM699.113 520.093V511.228C699.113 508.237 698.542 506.081 697.402 504.763C696.247 503.43 694.766 502.764 692.959 502.764C691.611 502.764 690.396 503.097 689.315 503.763C688.219 504.43 687.36 505.378 686.738 506.607C686.101 507.837 685.782 509.303 685.782 511.006V520.093H699.113ZM679.85 520.093V511.939C679.85 510.518 679.591 509.236 679.073 508.096C678.54 506.955 677.792 506.059 676.829 505.408C675.851 504.741 674.696 504.408 673.363 504.408C671.6 504.408 670.149 505.03 669.008 506.274C667.868 507.503 667.298 509.333 667.298 511.762V520.093H679.85ZM660.499 437.889L660.499 429.646H690.226C693.484 429.646 696.35 430.416 698.824 431.957C701.297 433.482 703.23 435.63 704.623 438.4C706 441.17 706.689 444.406 706.689 448.109C706.689 451.826 706 455.07 704.623 457.84C703.23 460.61 701.297 462.757 698.824 464.283C696.35 465.808 693.484 466.571 690.226 466.571H660.499V458.329H689.537C691.433 458.329 693.121 457.914 694.603 457.084C696.084 456.24 697.246 455.055 698.091 453.53C698.92 452.004 699.335 450.197 699.335 448.109C699.335 446.02 698.92 444.213 698.091 442.688C697.246 441.147 696.084 439.962 694.603 439.133C693.121 438.304 691.433 437.889 689.537 437.889H660.499ZM673.007 375.313C671.067 375.521 669.556 376.395 668.475 377.935C667.394 379.461 666.853 381.445 666.853 383.889C666.853 385.607 667.112 387.081 667.631 388.31C668.149 389.54 668.853 390.48 669.742 391.132C670.63 391.784 671.645 392.117 672.785 392.132C673.733 392.132 674.555 391.917 675.251 391.487C675.948 391.043 676.54 390.443 677.029 389.688C677.503 388.932 677.903 388.096 678.229 387.177C678.554 386.259 678.828 385.333 679.051 384.4L680.117 380.134C680.517 378.416 681.057 376.765 681.739 375.18C682.42 373.58 683.279 372.151 684.316 370.892C685.353 369.618 686.604 368.611 688.071 367.871C689.537 367.13 691.255 366.76 693.225 366.76C695.891 366.76 698.239 367.441 700.268 368.804C702.282 370.166 703.86 372.136 705 374.713C706.126 377.276 706.689 380.379 706.689 384.022C706.689 387.562 706.141 390.636 705.045 393.243C703.949 395.835 702.349 397.864 700.246 399.33C698.143 400.782 695.58 401.567 692.559 401.685V393.576C694.143 393.457 695.462 392.969 696.513 392.11C697.565 391.25 698.35 390.132 698.868 388.755C699.387 387.362 699.646 385.807 699.646 384.089C699.646 382.297 699.379 380.727 698.846 379.379C698.298 378.016 697.543 376.95 696.58 376.18C695.602 375.41 694.462 375.017 693.158 375.002C691.974 375.017 690.996 375.365 690.226 376.047C689.441 376.728 688.789 377.683 688.271 378.913C687.737 380.127 687.263 381.549 686.849 383.178L685.516 388.355C684.553 392.102 683.094 395.064 681.139 397.242C679.169 399.404 676.555 400.485 673.296 400.485C670.615 400.485 668.268 399.76 666.253 398.308C664.239 396.842 662.676 394.85 661.566 392.332C660.44 389.814 659.877 386.963 659.877 383.778C659.877 380.549 660.44 377.72 661.566 375.291C662.676 372.847 664.224 370.929 666.209 369.537C668.179 368.145 670.445 367.426 673.007 367.382V375.313ZM667.409 340.765H660.499V304.462H667.409V318.526H706V326.701H667.409V340.765ZM706 276.818H660.499V247.224H667.409V268.575H679.761V248.757H686.671V268.575H699.09V247.047H706V276.818ZM706 218.169H660.499V201.106C660.499 197.611 661.106 194.678 662.321 192.308C663.536 189.924 665.239 188.124 667.431 186.909C669.608 185.68 672.148 185.065 675.051 185.065C677.969 185.065 680.502 185.688 682.65 186.932C684.783 188.161 686.434 189.975 687.604 192.375C688.759 194.774 689.337 197.722 689.337 201.217V213.37H682.494V202.328C682.494 200.284 682.213 198.611 681.65 197.307C681.072 196.004 680.235 195.041 679.139 194.419C678.029 193.782 676.666 193.464 675.051 193.464C673.437 193.464 672.06 193.782 670.919 194.419C669.764 195.056 668.89 196.026 668.297 197.329C667.69 198.633 667.387 200.314 667.387 202.373V209.927H706V218.169ZM685.382 194.663L706 183.399V192.597L685.382 203.661V194.663Z" fill="white"/>
</g>
</g>
<defs>
<filter id="filter0_f_69_13" x="656.077" y="179.599" width="862.412" height="595.713" filterUnits="userSpaceOnUse" color-interpolation-filters="sRGB">
<feFlood flood-opacity="0" result="BackgroundImageFix"/>
<feBlend mode="normal" in="SourceGraphic" in2="BackgroundImageFix" result="shape"/>
<feGaussianBlur stdDeviation="1.9" result="effect1_foregroundBlur_69_13"/>
</filter>
<linearGradient id="paint0_linear_69_13" x1="1115" y1="-126.5" x2="523" y2="673" gradientUnits="userSpaceOnUse">
<stop stop-color="#EAE3FF"/>
<stop offset="1" stop-color="#CDC3EA"/>
</linearGradient>
<clipPath id="clip0_69_13">
<rect width="1512" height="982" fill="white"/>
</clipPath>
</defs>
</svg>
